<svg width="138" height="159" viewBox="0 0 138 159" fill="none" xmlns="http://www.w3.org/2000/svg">
<path d="M3.15002 56.28C3.15002 57.19 0.21002 56.7 0.0700196 56.28L0.35002 10.5C0.77002 10.29 4.27002 9.94002 4.34002 11.48C4.55002 15.54 6.44002 35.28 7.14002 39.27C7.84002 35.42 10.71 14.77 10.92 10.78C10.92 10.71 11.06 10.64 11.2 10.64C11.83 10.57 13.79 10.5 14.28 10.64C14.98 10.78 14.56 56 14.42 56.56C14.42 56.98 11.76 57.05 11.55 56.28C11.27 55.09 11.97 30.38 11.97 29.75C11.69 32.62 9.45002 43.05 9.17002 45.92C8.96002 47.32 9.38002 48.09 7.21002 48.09C5.46002 48.09 5.67002 48.02 5.46002 46.34L3.43002 29.61C3.36002 32.06 3.36002 47.95 3.36002 50.33L3.15002 56.28ZM25.2848 54.6C24.7948 56.98 20.1748 57.96 18.3548 56.56C17.5148 55.79 17.3048 53.55 17.2348 52.43C16.8848 47.04 16.5348 20.3 17.1648 14.98C17.3048 13.44 17.6548 11.48 19.0548 10.85C20.5248 10.15 24.0248 9.66002 25.3548 10.64C28.0848 12.6 25.9848 51.31 25.2848 54.6ZM20.3848 14.35C19.4048 20.79 19.8948 54.74 21.2948 54.74C24.0248 53.2 23.3248 16.38 22.9048 13.79C22.5548 11.27 20.6648 12.53 20.3848 14.35ZM39.7042 1.60933e-05C39.7042 1.60933e-05 39.7742 1.60933e-05 39.7742 0.0700152L39.7042 1.60933e-05ZM32.5642 56.28C32.5642 57.12 28.7142 57.05 28.6442 56.28C28.6442 55.23 29.1342 17.85 28.9242 11.2C29.6942 9.80002 32.9842 10.22 33.2642 11.69C33.8242 14.7 35.9242 32.13 36.2742 35.14C36.6942 25.62 35.8542 20.86 36.0642 11.34C36.0642 10.08 39.7042 9.73002 39.6342 11.41L38.6542 56.21C38.6542 56.98 36.0642 56.91 35.5042 56.28C35.0842 55.86 35.0842 52.22 35.0142 51.38C34.5942 42.21 33.6142 33.04 32.2142 23.94C32.0042 28.63 32.3542 51.66 32.5642 56.28ZM3.57002 106.56C2.94002 106.98 0.35002 107.05 0.35002 106.21C0.35002 105.02 1.95615e-05 60.99 1.19002 60.5C2.52002 60.15 3.85002 60.29 5.25002 60.36C6.37002 60.5 7.70002 60.92 8.26002 61.83C8.82002 62.67 9.03002 66.24 9.10002 67.22C9.24002 69.74 9.31002 82.13 9.10002 84.65C8.96002 85.77 8.89002 86.96 8.40002 88.01C7.91002 89.06 5.46002 90.88 4.20002 91.09L3.71002 91.37C3.57002 91.58 3.57002 91.79 3.57002 92.07C3.36002 94.24 3.64002 103.55 3.78002 105.72C3.78002 106.21 3.78002 106.42 3.57002 106.56ZM3.64002 88.5C3.64002 88.71 3.99002 88.57 4.20002 88.43C4.55002 88.29 5.32002 87.8 5.39002 87.38C5.60002 85.98 5.67002 84.58 5.74002 83.11C5.95002 79.89 6.37002 67.29 5.60002 64.14C5.46002 63.65 5.11002 62.6 4.55002 62.53C4.13002 62.46 3.92002 62.88 3.92002 63.3C4.06002 66.8 3.71002 85.07 3.64002 88.5ZM14.7093 106.56C13.2393 106.91 11.4893 107.12 11.4193 105.37C11.3493 100.68 11.9093 63.3 11.7693 60.43C14.0093 60.36 16.2493 60.29 18.4193 60.43C21.2893 60.57 21.4293 64.98 21.4993 67.92C21.5693 70.09 21.5693 81.36 21.2893 83.53C21.0093 85.63 19.5393 88.01 17.6493 88.36C21.6393 89.27 21.6393 95.64 21.3593 100.19C21.3593 100.75 21.2893 102.71 21.6393 103.13C22.2693 103.83 33.5393 102.36 33.6093 103.55C34.4493 105.16 33.7493 106.77 32.8393 106.77C30.8793 106.77 21.7093 107.33 19.8893 106.35C16.2493 104.39 17.8593 96.2 17.5793 92.35C17.5793 91.72 17.2293 89.83 16.7393 89.34C16.2493 88.85 15.1293 88.71 15.1293 88.78L15.2693 104.11C15.2693 105.02 15.5493 106.35 14.7093 106.56ZM14.9893 85.35C14.9193 87.59 17.3693 86.12 17.6493 83.95C18.0693 80.31 18.2793 66.45 17.3693 62.95C16.9493 61.48 15.4093 61.62 15.4093 63.23C15.5493 70.72 15.1993 77.86 14.9893 85.35ZM32.3493 99.42C31.7893 101.52 27.3093 102.36 25.4193 101.17C24.5093 100.47 24.2993 98.51 24.2293 97.6C23.8093 92.91 23.4593 69.18 24.1593 64.63C24.2993 63.23 24.6493 61.55 26.1193 60.99C27.7293 60.43 31.0193 60.01 32.4193 60.85C35.3593 62.53 33.1193 96.62 32.3493 99.42ZM27.8693 64.07C26.8193 69.6 26.8893 99.56 28.4293 99.56C31.2993 98.23 30.2493 65.82 29.8293 63.58C29.4793 61.41 28.1493 62.46 27.8693 64.07ZM39.3203 106.77C38.1303 106.91 36.0303 107.05 36.0303 105.58C36.0303 100.33 36.5203 70.51 36.3103 65.33C36.3103 64.21 36.0303 61.76 36.8703 61.06C37.9203 60.15 42.4703 60.15 43.8003 60.22C44.8503 60.22 44.5703 61.69 44.5003 62.74C44.3603 64 42.1203 63.44 40.9303 63.72C40.5803 63.79 40.1603 64 40.0903 64.42C39.3203 67.78 39.6703 83.39 39.6703 86.82C39.6703 87.8 43.0303 86.61 43.5903 87.31C44.0103 87.94 43.5903 89.55 43.5903 90.39C43.1003 90.6 40.8603 90.67 40.3003 90.74C40.0903 90.74 39.7403 90.81 39.7403 91.09C39.8103 96.13 39.7403 104.81 39.3203 106.77ZM52.1106 106.77C51.4106 106.84 47.0706 106.7 46.3006 106.77C46.3006 106.63 45.3206 106.7 45.3206 105.23C45.3206 91.44 45.6006 79.54 45.6006 65.75C45.6006 64.63 45.4606 61.06 45.9506 60.71C46.9306 60.01 51.2706 60.36 52.6706 60.5C53.4406 60.57 53.0906 63.86 52.5306 63.86L49.8006 63.93C49.1006 64 48.8906 65.12 48.8906 65.82C48.8906 68.69 48.7506 85.7 48.8206 88.57C49.5906 88.57 51.9706 88.43 52.0406 88.92C52.2506 90.25 52.1106 90.74 52.1106 91.44C51.8306 92.14 50.9206 91.79 48.8206 92L48.9606 103.41C49.5906 103.34 51.5506 103.2 52.3906 103.48C52.8106 103.97 52.6706 106.7 52.1106 106.77ZM63.2374 103.62C62.6774 106.35 59.3174 107.61 56.5174 106.84C53.9274 106.07 54.3474 102.01 54.4174 99.42C54.4874 97.32 54.4174 88.15 55.1874 86.19C55.7474 84.65 57.8474 85.98 57.8474 87.59C57.8474 88.5 57.2874 105.02 58.6874 104.81C61.0674 104.53 60.4374 92.21 59.9474 85.77C59.8074 84.79 55.8174 82.97 55.3274 82.06C53.7874 79.05 54.4174 68.13 54.6274 64.84C54.6974 64 55.0474 61.41 55.5374 60.92C56.5174 59.94 61.6974 60.08 62.8874 61.2C63.5874 61.97 64.0774 64.91 64.1474 65.89C64.3574 70.79 64.0774 74.99 64.0074 79.96C64.0074 81.36 63.6574 83.32 62.2574 82.76C61.4874 82.41 60.6474 81.5 60.5774 80.59C60.2274 78.49 60.7874 65.96 60.5774 63.86C60.2274 61.13 58.3374 61.97 58.2674 64.77C58.0574 68.62 58.1274 71.77 58.1274 75.69C58.1974 77.37 57.9874 81.57 59.3174 82.69C59.9474 83.11 62.3974 84.65 62.6774 85.21C64.9174 88.71 64.0774 99.63 63.2374 103.62ZM75.2003 103.62C74.6403 106.35 71.2803 107.61 68.4803 106.84C65.8903 106.07 66.3103 102.01 66.3803 99.42C66.4503 97.32 66.3803 88.15 67.1503 86.19C67.7103 84.65 69.8103 85.98 69.8103 87.59C69.8103 88.5 69.2503 105.02 70.6503 104.81C73.0303 104.53 72.4003 92.21 71.9103 85.77C71.7703 84.79 67.7803 82.97 67.2903 82.06C65.7503 79.05 66.3803 68.13 66.5903 64.84C66.6603 64 67.0103 61.41 67.5003 60.92C68.4803 59.94 73.6603 60.08 74.8503 61.2C75.5503 61.97 76.0403 64.91 76.1103 65.89C76.3203 70.79 76.0403 74.99 75.9703 79.96C75.9703 81.36 75.6203 83.32 74.2203 82.76C73.4503 82.41 72.6103 81.5 72.5403 80.59C72.1903 78.49 72.7503 65.96 72.5403 63.86C72.1903 61.13 70.3003 61.97 70.2303 64.77C70.0203 68.62 70.0903 71.77 70.0903 75.69C70.1603 77.37 69.9503 81.57 71.2803 82.69C71.9103 83.11 74.3603 84.65 74.6403 85.21C76.8803 88.71 76.0403 99.63 75.2003 103.62ZM84.9231 106.77C84.2231 106.84 79.8831 106.7 79.1131 106.77C79.1131 106.63 78.1331 106.7 78.1331 105.23C78.1331 91.44 78.4131 79.54 78.4131 65.75C78.4131 64.63 78.2731 61.06 78.7631 60.71C79.7431 60.01 84.0831 60.36 85.4831 60.5C86.2531 60.57 85.9031 63.86 85.3431 63.86L82.6131 63.93C81.9131 64 81.7031 65.12 81.7031 65.82C81.7031 68.69 81.5631 85.7 81.6331 88.57C82.4031 88.57 84.7831 88.43 84.8531 88.92C85.0631 90.25 84.9231 90.74 84.9231 91.44C84.6431 92.14 83.7331 91.79 81.6331 92L81.7731 103.41C82.4031 103.34 84.3631 103.2 85.2031 103.48C85.6231 103.97 85.4831 106.7 84.9231 106.77ZM90.5199 106.98C89.8899 106.98 88.8399 106.84 88.4899 106.49C87.2999 105.44 87.4399 101.24 87.4399 99.77L87.2999 60.71C88.1399 60.15 90.0999 60.43 90.4499 60.92C90.8699 64.35 90.1699 104.88 91.6399 104.88C92.5499 104.6 92.5499 103.69 92.6899 102.71C93.4599 97.46 92.7599 66.31 93.3199 61.06C94.0899 60.43 95.6299 60.01 96.3999 60.85C96.6799 63.37 96.3299 91.37 96.2599 93.96C96.1899 96.69 96.2599 99.35 95.7699 102.15C95.6299 103.41 95.5599 104.67 94.5799 105.72C93.8099 106.49 91.9899 106.91 90.5199 106.98ZM102.701 106.21C102.701 106.98 101.301 106.98 100.531 106.91C100.041 106.84 98.851 106.7 98.851 106.21L99.061 101.73C99.131 100.12 98.851 61.34 99.271 60.85C99.831 60.22 102.841 60.29 104.661 60.43C105.641 60.5 106.761 60.64 107.531 60.99C108.441 61.41 108.861 64.07 108.931 65.26C109.141 67.29 109.001 80.24 108.721 82.27C108.581 83.46 108.301 84.65 107.741 85.7C107.181 86.75 106.131 87.59 105.011 87.87C106.131 88.08 107.181 88.78 107.741 89.69C108.651 91.09 108.861 92.84 109.001 94.45C109.281 98.37 108.651 102.43 108.861 106.35C108.861 107.12 105.781 106.84 105.361 106.56C105.081 106.35 104.941 105.86 104.941 105.51C105.151 101.73 105.151 97.88 105.151 94.1C105.151 91.72 105.011 88.36 102.701 88.22C102.701 88.29 102.561 88.29 102.561 88.43L102.701 106.21ZM102.421 85C102.421 85.77 103.121 86.12 103.821 85.7C104.801 85.14 105.011 83.67 105.151 82.55C105.711 78.91 105.361 69.6 105.151 65.96C105.081 65.33 105.011 63.37 104.731 62.81C104.381 61.97 102.841 61.55 102.841 62.46C102.841 70.23 102.491 77.23 102.421 85ZM7.49002 156.35C6.51002 157.33 1.47002 156.7 0.0700196 156.77C0.35002 143.96 0.56002 111.48 0.49002 110.43C2.38002 110.36 4.27002 110.01 6.16002 110.22C7.07002 110.29 8.05002 110.57 8.61002 111.27C9.10002 112.04 9.38002 114.98 9.45002 115.89C9.73002 119.04 10.5 153.2 7.49002 156.35ZM3.92002 112.6C3.71002 126.88 3.29002 153.9 3.71002 154.46C4.69002 154.74 5.95002 153.9 6.02002 151.94C6.30002 142.28 7.21002 126.11 6.44002 116.73C6.37002 115.89 5.95002 113.02 5.46002 112.53C4.97002 111.97 3.92002 111.83 3.92002 112.6ZM18.4778 156.77C17.7778 156.84 13.4378 156.7 12.6678 156.77C12.6678 156.63 11.6878 156.7 11.6878 155.23C11.6878 141.44 11.9678 129.54 11.9678 115.75C11.9678 114.63 11.8278 111.06 12.3178 110.71C13.2978 110.01 17.6378 110.36 19.0378 110.5C19.8078 110.57 19.4578 113.86 18.8978 113.86L16.1678 113.93C15.4678 114 15.2578 115.12 15.2578 115.82C15.2578 118.69 15.1178 135.7 15.1878 138.57C15.9578 138.57 18.3378 138.43 18.4078 138.92C18.6178 140.25 18.4778 140.74 18.4778 141.44C18.1978 142.14 17.2878 141.79 15.1878 142L15.3278 153.41C15.9578 153.34 17.9178 153.2 18.7578 153.48C19.1778 153.97 19.0378 156.7 18.4778 156.77ZM35.7082 153.97C34.8682 156.49 29.1982 158.17 27.3782 156.42C26.0482 155.23 26.1882 150.82 26.1882 149V117.92C26.1882 116.66 26.5382 112.18 27.5882 111.13C28.2182 110.57 30.7382 110.43 31.5082 110.36C32.2782 110.29 34.7282 110.08 35.4282 110.36C36.1282 110.71 36.7582 112.32 36.8282 113.16C36.9682 115.54 36.9682 128.63 36.9682 130.94C36.9682 132.83 32.9082 134.16 32.9082 132.27C32.9782 129.89 33.1182 116.87 32.9782 114.42C32.8382 111.9 30.4582 112.04 30.1082 114.56C29.6182 117.92 29.6882 132.06 29.6882 135.42C29.6882 138.99 29.4782 154.74 31.1582 154.74C31.5082 154.74 31.7882 154.67 31.9982 154.04C33.3982 149.7 32.9082 139.55 32.9082 139.55C32.7682 139.27 31.2982 139.41 31.2282 139.13C31.0882 138.15 31.0882 135.98 32.2082 135.84C34.0282 135.56 36.5482 135.49 36.6182 136.82C36.7582 139.97 36.7582 151.03 35.7082 153.97ZM42.5316 156.56C41.0616 156.91 39.3116 157.12 39.2416 155.37C39.1716 150.68 39.7316 113.3 39.5916 110.43C41.8316 110.36 44.0716 110.29 46.2416 110.43C49.1116 110.57 49.2516 114.98 49.3216 117.92C49.3916 120.09 49.3916 131.36 49.1116 133.53C48.8316 135.63 47.3616 138.01 45.4716 138.36C49.4616 139.27 49.4616 145.64 49.1816 150.19C49.1816 150.75 49.2516 152.85 49.4616 153.62C49.8116 154.74 60.8016 153.2 61.5016 154.04C62.6916 155.51 61.6416 156.77 60.7316 156.77C58.7716 156.77 49.5316 157.33 47.7116 156.35C44.0716 154.39 45.6816 146.2 45.4016 142.35C45.4016 141.72 45.0516 139.83 44.5616 139.34C44.0716 138.85 42.9516 138.71 42.9516 138.78L43.0916 154.11C43.0916 155.02 43.3716 156.35 42.5316 156.56ZM42.8116 135.35C42.7416 137.59 45.1916 136.12 45.4716 133.95C45.8916 130.31 46.1016 116.45 45.1916 112.95C44.7716 111.48 43.2316 111.62 43.2316 113.23C43.3716 120.72 43.0216 127.86 42.8116 135.35ZM61.7116 151.66C61.3616 152.43 59.0516 152.57 58.7716 151.8C58.3516 150.4 58.4216 139.97 57.8616 138.43C57.6516 137.87 55.5516 138.36 55.4816 138.85C54.9216 142.49 54.9916 145.01 54.5716 148.65C54.5016 149.28 54.4316 151.52 53.9416 152.01C53.4516 152.5 51.3516 152.29 51.0716 151.66C50.8616 151.24 51.2816 148.23 51.3516 147.74C52.1916 138.36 53.6616 117.85 54.2916 112.25C54.5016 110.43 55.2716 110.57 56.8816 110.64C57.7916 110.71 59.1216 110.57 59.3316 112.04C60.1016 116.73 61.5016 144.03 61.7116 148.72C61.7116 149.21 61.9916 151.17 61.7116 151.66ZM55.5516 134.51C55.4816 135.14 57.6516 135.07 57.7916 134.65C58.1416 133.46 56.9516 116.17 56.9516 116.1C56.7416 119.18 55.9016 131.43 55.5516 134.51ZM66.3824 156.28C66.3824 157.19 63.4424 156.7 63.3024 156.28L63.5824 110.5C64.0024 110.29 67.5024 109.94 67.5724 111.48C67.7824 115.54 69.6724 135.28 70.3724 139.27C71.0724 135.42 73.9424 114.77 74.1524 110.78C74.1524 110.71 74.2924 110.64 74.4324 110.64C75.0624 110.57 77.0224 110.5 77.5124 110.64C78.2124 110.78 77.7924 156 77.6524 156.56C77.6524 156.98 74.9924 157.05 74.7824 156.28C74.5024 155.09 75.2024 130.38 75.2024 129.75C74.9224 132.62 72.6824 143.05 72.4024 145.92C72.1924 147.32 72.6124 148.09 70.4424 148.09C68.6924 148.09 68.9024 148.02 68.6924 146.34L66.6624 129.61C66.5924 132.06 66.5924 147.95 66.5924 150.33L66.3824 156.28ZM83.2672 156.28C83.2672 157.19 80.3272 156.7 80.1872 156.28L80.4672 110.5C80.8872 110.29 84.3872 109.94 84.4572 111.48C84.6672 115.54 86.5572 135.28 87.2572 139.27C87.9572 135.42 90.8272 114.77 91.0372 110.78C91.0372 110.71 91.1772 110.64 91.3172 110.64C91.9472 110.57 93.9072 110.5 94.3972 110.64C95.0972 110.78 94.6772 156 94.5372 156.56C94.5372 156.98 91.8772 157.05 91.6672 156.28C91.3872 155.09 92.0872 130.38 92.0872 129.75C91.8072 132.62 89.5672 143.05 89.2872 145.92C89.0772 147.32 89.4972 148.09 87.3272 148.09C85.5772 148.09 85.7872 148.02 85.5772 146.34L83.5472 129.61C83.4772 132.06 83.4772 147.95 83.4772 150.33L83.2672 156.28ZM109.252 156.28C108.902 157.05 106.452 157.19 106.172 156.42C105.752 155.02 105.402 145.99 104.842 144.45C104.632 143.89 100.922 144.38 100.852 144.87C100.292 148.51 100.432 149.91 100.012 153.55C99.942 154.18 99.872 156.14 99.382 156.63C99.032 156.98 96.442 156.91 96.162 156.28C95.952 155.86 96.372 153.13 96.442 152.64C97.772 143.4 100.222 117.64 100.852 112.04C101.062 110.22 101.832 110.36 103.442 110.43C104.352 110.5 105.822 110.36 105.892 111.83C106.102 116.52 108.552 149 109.112 153.69C109.182 154.18 109.532 155.79 109.252 156.28ZM101.342 140.53C101.272 141.16 104.352 141.09 104.492 140.67C104.842 139.48 103.372 115.96 103.372 115.89C103.162 118.97 101.692 137.45 101.342 140.53ZM112.915 104.55C116.345 104.9 115.575 109.59 112.215 109.24C109.695 108.96 110.465 104.34 112.915 104.55ZM114.455 156.56C114.385 157.19 110.745 156.7 110.745 156.49C111.025 150.05 111.095 110.57 111.095 110.64C111.445 110.36 114.805 110.15 114.805 110.64C113.895 124.29 114.455 145.5 114.455 156.56ZM120.598 156.56C119.128 156.91 117.378 157.12 117.308 155.37C117.238 150.68 117.798 113.3 117.658 110.43C119.898 110.36 122.138 110.29 124.308 110.43C127.178 110.57 127.318 114.98 127.388 117.92C127.458 120.09 127.458 131.36 127.178 133.53C126.898 135.63 125.428 138.01 123.538 138.36C127.528 139.27 127.528 145.64 127.248 150.19C127.248 150.75 127.178 152.71 127.528 153.13C128.158 153.83 135.998 152.64 136.698 153.55C137.398 154.46 136.838 156.77 135.928 156.77C133.968 156.77 127.598 157.33 125.778 156.35C122.138 154.39 123.748 146.2 123.468 142.35C123.468 141.72 123.118 139.83 122.628 139.34C122.138 138.85 121.018 138.71 121.018 138.78L121.158 154.11C121.158 155.02 121.438 156.35 120.598 156.56ZM120.878 135.35C120.808 137.59 123.258 136.12 123.538 133.95C123.958 130.31 124.168 116.45 123.258 112.95C122.838 111.48 121.298 111.62 121.298 113.23C121.438 120.72 121.088 127.86 120.878 135.35ZM136.138 151.17C135.438 151.24 131.098 151.1 130.328 151.17C130.328 151.03 129.348 151.1 129.348 149.63C129.348 135.84 129.628 129.82 129.628 116.03C129.628 114.91 129.488 111.34 129.978 110.99C130.958 110.29 134.878 110.64 136.278 110.78C137.048 110.85 136.698 114.14 136.138 114.14L133.828 114.21C133.128 114.28 132.918 115.4 132.918 116.1C132.918 118.97 132.778 130.1 132.848 132.97C133.618 132.97 135.998 132.83 136.068 133.32C136.278 134.65 136.138 135.14 136.138 135.84C135.858 136.54 134.948 136.19 132.848 136.4L132.988 147.81C133.618 147.74 135.578 147.6 136.418 147.88C136.838 148.37 136.698 151.1 136.138 151.17Z" fill="#636B2F"/>
</svg>
