<svg width="96" height="148" viewBox="0 0 96 148" fill="none" xmlns="http://www.w3.org/2000/svg">
<path d="M3.84997 46.34C3.84997 47.25 0.909971 46.76 0.769971 46.34L1.04997 0.560001C1.46997 0.349999 4.96997 -2.38419e-07 5.03997 1.54C5.24997 5.6 7.13997 25.34 7.83997 29.33C8.53997 25.48 11.41 4.83 11.62 0.840001C11.62 0.769998 11.76 0.699999 11.9 0.699999C12.53 0.63 14.49 0.560001 14.98 0.699999C15.68 0.840001 15.26 46.06 15.12 46.62C15.12 47.04 12.46 47.11 12.25 46.34C11.97 45.15 12.67 20.44 12.67 19.81C12.39 22.68 10.15 33.11 9.86997 35.98C9.65997 37.38 10.08 38.15 7.90997 38.15C6.15997 38.15 6.36997 38.08 6.15997 36.4L4.12997 19.67C4.05997 22.12 4.05997 38.01 4.05997 40.39L3.84997 46.34ZM23.6047 46.83C22.9747 47.04 21.5047 47.04 20.8747 46.83C20.3147 46.62 20.5247 45.64 20.5247 45.01C21.5047 26.53 19.7547 21.14 17.5847 6.58C17.3747 5.53 16.8847 2.03 17.1647 1.4C17.3747 0.910001 18.2847 0.699999 18.9147 0.699999C20.1747 0.699999 21.0147 0.349999 21.0147 1.89C21.1547 5.04 22.0647 17.5 22.7647 20.93C23.1147 18.41 24.3047 3.57 24.7247 0.98C24.8647 0.139998 25.7047 0.349999 27.1047 0.699999C27.6647 0.840001 28.2247 1.12 28.2247 1.68C28.0147 5.32 25.4247 20.02 24.9347 23.66C23.9547 31.08 23.7447 37.94 24.2347 45.36C24.3047 45.92 24.1647 46.62 23.6047 46.83ZM10.5 94.03C9.65997 96.55 3.98997 98.23 2.16997 96.48C0.839971 95.29 0.979971 90.88 0.979971 89.06V57.98C0.979971 56.72 1.32997 52.24 2.37997 51.19C3.00997 50.63 5.52997 50.49 6.29997 50.42C7.06997 50.35 9.51997 50.14 10.22 50.42C10.92 50.77 11.55 52.38 11.62 53.22C11.76 55.6 11.76 68.69 11.76 71C11.76 72.89 7.69997 74.22 7.69997 72.33C7.76997 69.95 7.90997 56.93 7.76997 54.48C7.62997 51.96 5.24997 52.1 4.89997 54.62C4.40997 57.98 4.47997 72.12 4.47997 75.48C4.47997 79.05 4.26997 94.8 5.94997 94.8C6.29997 94.8 6.57997 94.73 6.78997 94.1C8.18997 89.76 7.69997 79.61 7.69997 79.61C7.55997 79.33 6.08997 79.47 6.01997 79.19C5.87997 78.21 5.87997 76.04 6.99997 75.9C8.81997 75.62 11.34 75.55 11.41 76.88C11.55 80.03 11.55 91.09 10.5 94.03ZM17.3233 96.62C15.8533 96.97 14.1033 97.18 14.0333 95.43C13.9633 90.74 14.5233 53.36 14.3833 50.49C16.6233 50.42 18.8633 50.35 21.0333 50.49C23.9033 50.63 24.0433 55.04 24.1133 57.98C24.1833 60.15 24.1833 71.42 23.9033 73.59C23.6233 75.69 22.1533 78.07 20.2633 78.42C24.2533 79.33 24.2533 85.7 23.9733 90.25C23.9733 90.81 24.0433 92.91 24.2533 93.68C24.6033 94.8 35.5933 93.26 36.2933 94.1C37.4833 95.57 36.4333 96.83 35.5233 96.83C33.5633 96.83 24.3233 97.39 22.5033 96.41C18.8633 94.45 20.4733 86.26 20.1933 82.41C20.1933 81.78 19.8433 79.89 19.3533 79.4C18.8633 78.91 17.7433 78.77 17.7433 78.84L17.8833 94.17C17.8833 95.08 18.1633 96.41 17.3233 96.62ZM17.6033 75.41C17.5333 77.65 19.9833 76.18 20.2633 74.01C20.6833 70.37 20.8933 56.51 19.9833 53.01C19.5633 51.54 18.0233 51.68 18.0233 53.29C18.1633 60.78 17.8133 67.92 17.6033 75.41ZM36.5033 91.72C36.1533 92.49 33.8433 92.63 33.5633 91.86C33.1433 90.46 33.2133 80.03 32.6533 78.49C32.4433 77.93 30.3433 78.42 30.2733 78.91C29.7133 82.55 29.7833 85.07 29.3633 88.71C29.2933 89.34 29.2233 91.58 28.7333 92.07C28.2433 92.56 26.1433 92.35 25.8633 91.72C25.6533 91.3 26.0733 88.29 26.1433 87.8C26.9833 78.42 28.4533 57.91 29.0833 52.31C29.2933 50.49 30.0633 50.63 31.6733 50.7C32.5833 50.77 33.9133 50.63 34.1233 52.1C34.8933 56.79 36.2933 84.09 36.5033 88.78C36.5033 89.27 36.7833 91.23 36.5033 91.72ZM30.3433 74.57C30.2733 75.2 32.4433 75.13 32.5833 74.71C32.9333 73.52 31.7433 56.23 31.7433 56.16C31.5333 59.24 30.6933 71.49 30.3433 74.57ZM41.1742 96.34C41.1742 97.25 38.2342 96.76 38.0942 96.34L38.3742 50.56C38.7942 50.35 42.2942 50 42.3642 51.54C42.5742 55.6 44.4642 75.34 45.1642 79.33C45.8642 75.48 48.7342 54.83 48.9442 50.84C48.9442 50.77 49.0842 50.7 49.2242 50.7C49.8542 50.63 51.8142 50.56 52.3042 50.7C53.0042 50.84 52.5842 96.06 52.4442 96.62C52.4442 97.04 49.7842 97.11 49.5742 96.34C49.2942 95.15 49.9942 70.44 49.9942 69.81C49.7142 72.68 47.4742 83.11 47.1942 85.98C46.9842 87.38 47.4042 88.15 45.2342 88.15C43.4842 88.15 43.6942 88.08 43.4842 86.4L41.4542 69.67C41.3842 72.12 41.3842 88.01 41.3842 90.39L41.1742 96.34ZM58.059 96.34C58.059 97.25 55.119 96.76 54.979 96.34L55.259 50.56C55.679 50.35 59.179 50 59.249 51.54C59.459 55.6 61.349 75.34 62.049 79.33C62.749 75.48 65.619 54.83 65.829 50.84C65.829 50.77 65.969 50.7 66.109 50.7C66.739 50.63 68.699 50.56 69.189 50.7C69.889 50.84 69.469 96.06 69.329 96.62C69.329 97.04 66.669 97.11 66.459 96.34C66.179 95.15 66.879 70.44 66.879 69.81C66.599 72.68 64.359 83.11 64.079 85.98C63.869 87.38 64.289 88.15 62.119 88.15C60.369 88.15 60.579 88.08 60.369 86.4L58.339 69.67C58.269 72.12 58.269 88.01 58.269 90.39L58.059 96.34ZM84.0437 96.34C83.6937 97.11 81.2437 97.25 80.9637 96.48C80.5437 95.08 80.1937 86.05 79.6337 84.51C79.4237 83.95 75.7137 84.44 75.6437 84.93C75.0837 88.57 75.2237 89.97 74.8037 93.61C74.7337 94.24 74.6637 96.2 74.1737 96.69C73.8237 97.04 71.2337 96.97 70.9537 96.34C70.7437 95.92 71.1637 93.19 71.2337 92.7C72.5637 83.46 75.0137 57.7 75.6437 52.1C75.8537 50.28 76.6237 50.42 78.2337 50.49C79.1437 50.56 80.6137 50.42 80.6837 51.89C80.8937 56.58 83.3437 89.06 83.9037 93.75C83.9737 94.24 84.3237 95.85 84.0437 96.34ZM76.1337 80.59C76.0637 81.22 79.1437 81.15 79.2837 80.73C79.6337 79.54 78.1637 56.02 78.1637 55.95C77.9537 59.03 76.4837 77.51 76.1337 80.59ZM89.3872 96.27C89.3872 97.04 87.9872 97.04 87.2172 96.97C86.7272 96.9 85.5372 96.76 85.5372 96.27L85.7472 91.79C85.8172 90.18 85.5372 51.4 85.9572 50.91C86.5172 50.28 89.5272 50.35 91.3472 50.49C92.3272 50.56 93.4472 50.7 94.2172 51.05C95.1272 51.47 95.5472 54.13 95.6172 55.32C95.8272 57.35 95.6872 70.3 95.4072 72.33C95.2672 73.52 94.9872 74.71 94.4272 75.76C93.8672 76.81 92.8172 77.65 91.6972 77.93C92.8172 78.14 93.8672 78.84 94.4272 79.75C95.3372 81.15 95.5472 82.9 95.6872 84.51C95.9672 88.43 95.3372 92.49 95.5472 96.41C95.5472 97.18 92.4672 96.9 92.0472 96.62C91.7672 96.41 91.6272 95.92 91.6272 95.57C91.8372 91.79 91.8372 87.94 91.8372 84.16C91.8372 81.78 91.6972 78.42 89.3872 78.28C89.3872 78.35 89.2472 78.35 89.2472 78.49L89.3872 96.27ZM89.1072 75.06C89.1072 75.83 89.8072 76.18 90.5072 75.76C91.4872 75.2 91.6972 73.73 91.8372 72.61C92.3972 68.97 92.0472 59.66 91.8372 56.02C91.7672 55.39 91.6972 53.43 91.4172 52.87C91.0672 52.03 89.5272 51.61 89.5272 52.52C89.5272 60.29 89.1772 67.29 89.1072 75.06ZM6.64997 146.06C6.64997 147.11 5.17997 147.04 4.12997 146.9C3.77997 146.83 3.07997 146.76 3.07997 146.41L3.56997 106.16C3.56997 105.6 3.70997 104.48 3.21997 104.27C2.86997 104.13 1.04997 104.41 0.699971 104.2C0.349971 103.92 0.139971 102.8 0.139971 102.31C0.139971 101.96 -2.92836e-05 101.33 0.139971 100.98C0.489971 100.28 1.95997 100.35 2.72997 100.42C3.63997 100.49 14.42 100.49 15.33 100.42C15.68 100.35 16.1 100.42 16.31 100.7C16.59 101.26 16.52 103.92 16.24 104.13C15.05 104.27 6.78997 103.36 6.71997 104.55C6.22997 118.48 6.64997 131.99 6.64997 146.06ZM15.75 146.76C15.05 146.83 10.64 146.69 9.93997 146.76C9.93997 146.62 8.95997 146.62 8.95997 145.22C8.95997 131.43 9.23997 125.34 9.23997 111.62C9.23997 110.5 9.02997 106.93 9.58997 106.58C10.57 105.88 14.56 106.23 15.89 106.37C16.66 106.44 16.24 109.73 15.75 109.73L13.44 109.8C12.74 109.87 12.53 111.06 12.53 111.69C12.53 114.56 12.39 125.76 12.46 128.56C13.23 128.56 15.61 128.49 15.68 128.91C15.89 130.24 15.75 130.8 15.75 131.43C15.47 132.13 14.49 131.78 12.46 131.99L12.6 143.4C13.23 143.33 15.19 143.19 16.03 143.47C16.45 143.96 16.24 146.69 15.75 146.76ZM29.9715 146.34C29.6215 147.11 27.1715 147.25 26.8915 146.48C26.4715 145.08 26.1215 136.05 25.5615 134.51C25.3515 133.95 21.6415 134.44 21.5715 134.93C21.0115 138.57 21.1515 139.97 20.7315 143.61C20.6615 144.24 20.5915 146.2 20.1015 146.69C19.7515 147.04 17.1615 146.97 16.8815 146.34C16.6715 145.92 17.0915 143.19 17.1615 142.7C18.4915 133.46 20.9415 107.7 21.5715 102.1C21.7815 100.28 22.5515 100.42 24.1615 100.49C25.0715 100.56 26.5415 100.42 26.6115 101.89C26.8215 106.58 29.2715 139.06 29.8315 143.75C29.9015 144.24 30.2515 145.85 29.9715 146.34ZM22.0615 130.59C21.9915 131.22 25.0715 131.15 25.2115 130.73C25.5615 129.54 24.0915 106.02 24.0915 105.95C23.8815 109.03 22.4115 127.51 22.0615 130.59ZM32.725 146.55C30.625 144.52 30.555 104.06 32.585 101.26C33.355 100.28 38.885 100 39.585 100.7C41.405 102.45 40.775 117.36 40.215 117.85C39.445 118.69 37.485 119.04 37.485 117.64C37.485 115.75 37.835 103.22 36.505 102.1C35.735 101.54 35.035 102.52 34.825 103.29C34.125 106.09 34.195 143.33 35.455 144.94C35.735 145.29 36.015 144.73 36.225 144.31C37.765 141.44 37.135 134.86 37.135 131.85C37.135 130.45 39.725 130.38 40.005 130.66C40.845 131.85 40.215 143.96 38.955 145.57C37.975 146.83 33.985 147.6 32.725 146.55ZM52.7592 145.85C52.8292 147.32 48.8392 147.39 48.9092 145.92L49.1892 133.04L46.1792 133.11C46.1092 130.87 46.5992 146.34 46.3192 146.76C46.3192 146.76 42.7492 147.32 42.7492 146.34L42.8192 100.77C43.5192 100.21 46.5292 100.35 46.5292 100.7C46.5292 104.62 46.1092 126.04 46.1092 129.96C47.0892 129.82 48.2092 129.89 49.1192 129.82L49.2592 100.56C49.7492 100.14 53.0392 100.35 53.0392 100.7C52.4792 116.38 52.0592 130.17 52.7592 145.85ZM61.629 146.83C60.929 146.9 56.589 146.76 55.819 146.83C55.819 146.69 54.839 146.76 54.839 145.29C54.839 131.5 55.119 119.6 55.119 105.81C55.119 104.69 54.979 101.12 55.469 100.77C56.449 100.07 60.789 100.42 62.189 100.56C62.959 100.63 62.609 103.92 62.049 103.92L59.319 103.99C58.619 104.06 58.409 105.18 58.409 105.88C58.409 108.75 58.269 125.76 58.339 128.63C59.109 128.63 61.489 128.49 61.559 128.98C61.769 130.31 61.629 130.8 61.629 131.5C61.349 132.2 60.439 131.85 58.339 132.06L58.479 143.47C59.109 143.4 61.069 143.26 61.909 143.54C62.329 144.03 62.189 146.76 61.629 146.83ZM67.7857 146.27C67.7857 147.04 66.3857 147.04 65.6157 146.97C65.1257 146.9 63.9357 146.76 63.9357 146.27L64.1457 141.79C64.2157 140.18 63.9357 101.4 64.3557 100.91C64.9157 100.28 67.9257 100.35 69.7457 100.49C70.7257 100.56 71.8457 100.7 72.6157 101.05C73.5257 101.47 73.9457 104.13 74.0157 105.32C74.2257 107.35 74.0857 120.3 73.8057 122.33C73.6657 123.52 73.3857 124.71 72.8257 125.76C72.2657 126.81 71.2157 127.65 70.0957 127.93C71.2157 128.14 72.2657 128.84 72.8257 129.75C73.7357 131.15 73.9457 132.9 74.0857 134.51C74.3657 138.43 73.7357 142.49 73.9457 146.41C73.9457 147.18 70.8657 146.9 70.4457 146.62C70.1657 146.41 70.0257 145.92 70.0257 145.57C70.2357 141.79 70.2357 137.94 70.2357 134.16C70.2357 131.78 70.0957 128.42 67.7857 128.28C67.7857 128.35 67.6457 128.35 67.6457 128.49L67.7857 146.27ZM67.5057 125.06C67.5057 125.83 68.2057 126.18 68.9057 125.76C69.8857 125.2 70.0957 123.73 70.2357 122.61C70.7957 118.97 70.4457 109.66 70.2357 106.02C70.1657 105.39 70.0957 103.43 69.8157 102.87C69.4657 102.03 67.9257 101.61 67.9257 102.52C67.9257 110.29 67.5757 117.29 67.5057 125.06Z" fill="#636B2F"/>
</svg>
